<?xml version="1.0" encoding="utf-8" standalone="no"?>
<!DOCTYPE svg PUBLIC "-//W3C//DTD SVG 1.1//EN"
  "http://www.w3.org/Graphics/SVG/1.1/DTD/svg11.dtd">
<svg xmlns:xlink="http://www.w3.org/1999/xlink" width="872.799687pt" height="325.986375pt" viewBox="0 0 872.799687 325.986375" xmlns="http://www.w3.org/2000/svg" version="1.1">
 <metadata>
  <rdf:RDF xmlns:dc="http://purl.org/dc/elements/1.1/" xmlns:cc="http://creativecommons.org/ns#" xmlns:rdf="http://www.w3.org/1999/02/22-rdf-syntax-ns#">
   <cc:Work>
    <dc:type rdf:resource="http://purl.org/dc/dcmitype/StillImage"/>
    <dc:date>2025-12-07T11:05:34.322133</dc:date>
    <dc:format>image/svg+xml</dc:format>
    <dc:creator>
     <cc:Agent>
      <dc:title>Matplotlib v3.10.0, https://matplotlib.org/</dc:title>
     </cc:Agent>
    </dc:creator>
   </cc:Work>
  </rdf:RDF>
 </metadata>
 <defs>
  <style type="text/css">*{stroke-linejoin: round; stroke-linecap: butt}</style>
 </defs>
 <g id="figure_1">
  <g id="patch_1">
   <path d="M -0 325.986375 
L 872.799687 325.986375 
L 872.799687 0 
L -0 0 
z
" style="fill: #ffffff"/>
  </g>
  <g id="axes_1">
   <g id="patch_2">
    <path d="M 508.479687 288.430125 
L 865.599688 288.430125 
L 865.599688 22.318125 
L 508.479687 22.318125 
z
" style="fill: #ffffff"/>
   </g>
   <g id="patch_3">
    <path d="M 508.479687 26.119725 
L 516.806015 26.119725 
L 516.806015 56.532525 
L 508.479687 56.532525 
z
" clip-path="url(#p3a78514267)" style="fill: #3274a1"/>
   </g>
   <g id="patch_4">
    <path d="M 508.479687 64.135725 
L 508.538531 64.135725 
L 508.538531 94.548525 
L 508.479687 94.548525 
z
" clip-path="url(#p3a78514267)" style="fill: #3274a1"/>
   </g>
   <g id="patch_5">
    <path d="M 508.479687 102.151725 
L 512.554586 102.151725 
L 512.554586 132.564525 
L 508.479687 132.564525 
z
" clip-path="url(#p3a78514267)" style="fill: #3274a1"/>
   </g>
   <g id="patch_6">
    <path d="M 508.479687 140.167725 
L 848.593973 140.167725 
L 848.593973 170.580525 
L 508.479687 170.580525 
z
" clip-path="url(#p3a78514267)" style="fill: #3274a1"/>
   </g>
   <g id="patch_7">
    <path d="M 508.479687 178.183725 
L 518.86553 178.183725 
L 518.86553 208.596525 
L 508.479687 208.596525 
z
" clip-path="url(#p3a78514267)" style="fill: #3274a1"/>
   </g>
   <g id="patch_8">
    <path d="M 508.479687 216.199725 
L 508.487043 216.199725 
L 508.487043 246.612525 
L 508.479687 246.612525 
z
" clip-path="url(#p3a78514267)" style="fill: #3274a1"/>
   </g>
   <g id="patch_9">
    <path d="M 508.479687 254.215725 
L 513.812362 254.215725 
L 513.812362 284.628525 
L 508.479687 284.628525 
z
" clip-path="url(#p3a78514267)" style="fill: #3274a1"/>
   </g>
   <g id="matplotlib.axis_1">
    <g id="xtick_1">
     <g id="line2d_1">
      <defs>
       <path id="mef5fbd7fd2" d="M 0 0 
L 0 3.5 
" style="stroke: #000000; stroke-width: 0.8"/>
      </defs>
      <g>
       <use xlink:href="#mef5fbd7fd2" x="508.479687" y="288.430125" style="stroke: #000000; stroke-width: 0.8"/>
      </g>
     </g>
     <g id="text_1">
      <!-- 0 -->
      <g transform="translate(505.298437 303.028562) scale(0.1 -0.1)">
       <defs>
        <path id="DejaVuSans-30" d="M 2034 4250 
Q 1547 4250 1301 3770 
Q 1056 3291 1056 2328 
Q 1056 1369 1301 889 
Q 1547 409 2034 409 
Q 2525 409 2770 889 
Q 3016 1369 3016 2328 
Q 3016 3291 2770 3770 
Q 2525 4250 2034 4250 
z
M 2034 4750 
Q 2819 4750 3233 4129 
Q 3647 3509 3647 2328 
Q 3647 1150 3233 529 
Q 2819 -91 2034 -91 
Q 1250 -91 836 529 
Q 422 1150 422 2328 
Q 422 3509 836 4129 
Q 1250 4750 2034 4750 
z
" transform="scale(0.015625)"/>
       </defs>
       <use xlink:href="#DejaVuSans-30"/>
      </g>
     </g>
    </g>
    <g id="xtick_2">
     <g id="line2d_2">
      <g>
       <use xlink:href="#mef5fbd7fd2" x="582.033815" y="288.430125" style="stroke: #000000; stroke-width: 0.8"/>
      </g>
     </g>
     <g id="text_2">
      <!-- 10000 -->
      <g transform="translate(566.127565 303.028562) scale(0.1 -0.1)">
       <defs>
        <path id="DejaVuSans-31" d="M 794 531 
L 1825 531 
L 1825 4091 
L 703 3866 
L 703 4441 
L 1819 4666 
L 2450 4666 
L 2450 531 
L 3481 531 
L 3481 0 
L 794 0 
L 794 531 
z
" transform="scale(0.015625)"/>
       </defs>
       <use xlink:href="#DejaVuSans-31"/>
       <use xlink:href="#DejaVuSans-30" transform="translate(63.623047 0)"/>
       <use xlink:href="#DejaVuSans-30" transform="translate(127.246094 0)"/>
       <use xlink:href="#DejaVuSans-30" transform="translate(190.869141 0)"/>
       <use xlink:href="#DejaVuSans-30" transform="translate(254.492188 0)"/>
      </g>
     </g>
    </g>
    <g id="xtick_3">
     <g id="line2d_3">
      <g>
       <use xlink:href="#mef5fbd7fd2" x="655.587943" y="288.430125" style="stroke: #000000; stroke-width: 0.8"/>
      </g>
     </g>
     <g id="text_3">
      <!-- 20000 -->
      <g transform="translate(639.681693 303.028562) scale(0.1 -0.1)">
       <defs>
        <path id="DejaVuSans-32" d="M 1228 531 
L 3431 531 
L 3431 0 
L 469 0 
L 469 531 
Q 828 903 1448 1529 
Q 2069 2156 2228 2338 
Q 2531 2678 2651 2914 
Q 2772 3150 2772 3378 
Q 2772 3750 2511 3984 
Q 2250 4219 1831 4219 
Q 1534 4219 1204 4116 
Q 875 4013 500 3803 
L 500 4441 
Q 881 4594 1212 4672 
Q 1544 4750 1819 4750 
Q 2544 4750 2975 4387 
Q 3406 4025 3406 3419 
Q 3406 3131 3298 2873 
Q 3191 2616 2906 2266 
Q 2828 2175 2409 1742 
Q 1991 1309 1228 531 
z
" transform="scale(0.015625)"/>
       </defs>
       <use xlink:href="#DejaVuSans-32"/>
       <use xlink:href="#DejaVuSans-30" transform="translate(63.623047 0)"/>
       <use xlink:href="#DejaVuSans-30" transform="translate(127.246094 0)"/>
       <use xlink:href="#DejaVuSans-30" transform="translate(190.869141 0)"/>
       <use xlink:href="#DejaVuSans-30" transform="translate(254.492188 0)"/>
      </g>
     </g>
    </g>
    <g id="xtick_4">
     <g id="line2d_4">
      <g>
       <use xlink:href="#mef5fbd7fd2" x="729.14207" y="288.430125" style="stroke: #000000; stroke-width: 0.8"/>
      </g>
     </g>
     <g id="text_4">
      <!-- 30000 -->
      <g transform="translate(713.23582 303.028562) scale(0.1 -0.1)">
       <defs>
        <path id="DejaVuSans-33" d="M 2597 2516 
Q 3050 2419 3304 2112 
Q 3559 1806 3559 1356 
Q 3559 666 3084 287 
Q 2609 -91 1734 -91 
Q 1441 -91 1130 -33 
Q 819 25 488 141 
L 488 750 
Q 750 597 1062 519 
Q 1375 441 1716 441 
Q 2309 441 2620 675 
Q 2931 909 2931 1356 
Q 2931 1769 2642 2001 
Q 2353 2234 1838 2234 
L 1294 2234 
L 1294 2753 
L 1863 2753 
Q 2328 2753 2575 2939 
Q 2822 3125 2822 3475 
Q 2822 3834 2567 4026 
Q 2313 4219 1838 4219 
Q 1578 4219 1281 4162 
Q 984 4106 628 3988 
L 628 4550 
Q 988 4650 1302 4700 
Q 1616 4750 1894 4750 
Q 2613 4750 3031 4423 
Q 3450 4097 3450 3541 
Q 3450 3153 3228 2886 
Q 3006 2619 2597 2516 
z
" transform="scale(0.015625)"/>
       </defs>
       <use xlink:href="#DejaVuSans-33"/>
       <use xlink:href="#DejaVuSans-30" transform="translate(63.623047 0)"/>
       <use xlink:href="#DejaVuSans-30" transform="translate(127.246094 0)"/>
       <use xlink:href="#DejaVuSans-30" transform="translate(190.869141 0)"/>
       <use xlink:href="#DejaVuSans-30" transform="translate(254.492188 0)"/>
      </g>
     </g>
    </g>
    <g id="xtick_5">
     <g id="line2d_5">
      <g>
       <use xlink:href="#mef5fbd7fd2" x="802.696198" y="288.430125" style="stroke: #000000; stroke-width: 0.8"/>
      </g>
     </g>
     <g id="text_5">
      <!-- 40000 -->
      <g transform="translate(786.789948 303.028562) scale(0.1 -0.1)">
       <defs>
        <path id="DejaVuSans-34" d="M 2419 4116 
L 825 1625 
L 2419 1625 
L 2419 4116 
z
M 2253 4666 
L 3047 4666 
L 3047 1625 
L 3713 1625 
L 3713 1100 
L 3047 1100 
L 3047 0 
L 2419 0 
L 2419 1100 
L 313 1100 
L 313 1709 
L 2253 4666 
z
" transform="scale(0.015625)"/>
       </defs>
       <use xlink:href="#DejaVuSans-34"/>
       <use xlink:href="#DejaVuSans-30" transform="translate(63.623047 0)"/>
       <use xlink:href="#DejaVuSans-30" transform="translate(127.246094 0)"/>
       <use xlink:href="#DejaVuSans-30" transform="translate(190.869141 0)"/>
       <use xlink:href="#DejaVuSans-30" transform="translate(254.492188 0)"/>
      </g>
     </g>
    </g>
    <g id="text_6">
     <!-- count -->
     <g transform="translate(672.933437 316.706687) scale(0.1 -0.1)">
      <defs>
       <path id="DejaVuSans-63" d="M 3122 3366 
L 3122 2828 
Q 2878 2963 2633 3030 
Q 2388 3097 2138 3097 
Q 1578 3097 1268 2742 
Q 959 2388 959 1747 
Q 959 1106 1268 751 
Q 1578 397 2138 397 
Q 2388 397 2633 464 
Q 2878 531 3122 666 
L 3122 134 
Q 2881 22 2623 -34 
Q 2366 -91 2075 -91 
Q 1284 -91 818 406 
Q 353 903 353 1747 
Q 353 2603 823 3093 
Q 1294 3584 2113 3584 
Q 2378 3584 2631 3529 
Q 2884 3475 3122 3366 
z
" transform="scale(0.015625)"/>
       <path id="DejaVuSans-6f" d="M 1959 3097 
Q 1497 3097 1228 2736 
Q 959 2375 959 1747 
Q 959 1119 1226 758 
Q 1494 397 1959 397 
Q 2419 397 2687 759 
Q 2956 1122 2956 1747 
Q 2956 2369 2687 2733 
Q 2419 3097 1959 3097 
z
M 1959 3584 
Q 2709 3584 3137 3096 
Q 3566 2609 3566 1747 
Q 3566 888 3137 398 
Q 2709 -91 1959 -91 
Q 1206 -91 779 398 
Q 353 888 353 1747 
Q 353 2609 779 3096 
Q 1206 3584 1959 3584 
z
" transform="scale(0.015625)"/>
       <path id="DejaVuSans-75" d="M 544 1381 
L 544 3500 
L 1119 3500 
L 1119 1403 
Q 1119 906 1312 657 
Q 1506 409 1894 409 
Q 2359 409 2629 706 
Q 2900 1003 2900 1516 
L 2900 3500 
L 3475 3500 
L 3475 0 
L 2900 0 
L 2900 538 
Q 2691 219 2414 64 
Q 2138 -91 1772 -91 
Q 1169 -91 856 284 
Q 544 659 544 1381 
z
M 1991 3584 
L 1991 3584 
z
" transform="scale(0.015625)"/>
       <path id="DejaVuSans-6e" d="M 3513 2113 
L 3513 0 
L 2938 0 
L 2938 2094 
Q 2938 2591 2744 2837 
Q 2550 3084 2163 3084 
Q 1697 3084 1428 2787 
Q 1159 2491 1159 1978 
L 1159 0 
L 581 0 
L 581 3500 
L 1159 3500 
L 1159 2956 
Q 1366 3272 1645 3428 
Q 1925 3584 2291 3584 
Q 2894 3584 3203 3211 
Q 3513 2838 3513 2113 
z
" transform="scale(0.015625)"/>
       <path id="DejaVuSans-74" d="M 1172 4494 
L 1172 3500 
L 2356 3500 
L 2356 3053 
L 1172 3053 
L 1172 1153 
Q 1172 725 1289 603 
Q 1406 481 1766 481 
L 2356 481 
L 2356 0 
L 1766 0 
Q 1100 0 847 248 
Q 594 497 594 1153 
L 594 3053 
L 172 3053 
L 172 3500 
L 594 3500 
L 594 4494 
L 1172 4494 
z
" transform="scale(0.015625)"/>
      </defs>
      <use xlink:href="#DejaVuSans-63"/>
      <use xlink:href="#DejaVuSans-6f" transform="translate(54.980469 0)"/>
      <use xlink:href="#DejaVuSans-75" transform="translate(116.162109 0)"/>
      <use xlink:href="#DejaVuSans-6e" transform="translate(179.541016 0)"/>
      <use xlink:href="#DejaVuSans-74" transform="translate(242.919922 0)"/>
     </g>
    </g>
   </g>
   <g id="matplotlib.axis_2">
    <g id="ytick_1">
     <g id="line2d_6">
      <defs>
       <path id="mea07aa7242" d="M 0 0 
L -3.5 0 
" style="stroke: #000000; stroke-width: 0.8"/>
      </defs>
      <g>
       <use xlink:href="#mea07aa7242" x="508.479687" y="41.326125" style="stroke: #000000; stroke-width: 0.8"/>
      </g>
     </g>
     <g id="text_7">
      <!-- BEV (Electric Vehicle) -->
      <g transform="translate(394.479687 45.125344) scale(0.1 -0.1)">
       <defs>
        <path id="DejaVuSans-42" d="M 1259 2228 
L 1259 519 
L 2272 519 
Q 2781 519 3026 730 
Q 3272 941 3272 1375 
Q 3272 1813 3026 2020 
Q 2781 2228 2272 2228 
L 1259 2228 
z
M 1259 4147 
L 1259 2741 
L 2194 2741 
Q 2656 2741 2882 2914 
Q 3109 3088 3109 3444 
Q 3109 3797 2882 3972 
Q 2656 4147 2194 4147 
L 1259 4147 
z
M 628 4666 
L 2241 4666 
Q 2963 4666 3353 4366 
Q 3744 4066 3744 3513 
Q 3744 3084 3544 2831 
Q 3344 2578 2956 2516 
Q 3422 2416 3680 2098 
Q 3938 1781 3938 1306 
Q 3938 681 3513 340 
Q 3088 0 2303 0 
L 628 0 
L 628 4666 
z
" transform="scale(0.015625)"/>
        <path id="DejaVuSans-45" d="M 628 4666 
L 3578 4666 
L 3578 4134 
L 1259 4134 
L 1259 2753 
L 3481 2753 
L 3481 2222 
L 1259 2222 
L 1259 531 
L 3634 531 
L 3634 0 
L 628 0 
L 628 4666 
z
" transform="scale(0.015625)"/>
        <path id="DejaVuSans-56" d="M 1831 0 
L 50 4666 
L 709 4666 
L 2188 738 
L 3669 4666 
L 4325 4666 
L 2547 0 
L 1831 0 
z
" transform="scale(0.015625)"/>
        <path id="DejaVuSans-20" transform="scale(0.015625)"/>
        <path id="DejaVuSans-28" d="M 1984 4856 
Q 1566 4138 1362 3434 
Q 1159 2731 1159 2009 
Q 1159 1288 1364 580 
Q 1569 -128 1984 -844 
L 1484 -844 
Q 1016 -109 783 600 
Q 550 1309 550 2009 
Q 550 2706 781 3412 
Q 1013 4119 1484 4856 
L 1984 4856 
z
" transform="scale(0.015625)"/>
        <path id="DejaVuSans-6c" d="M 603 4863 
L 1178 4863 
L 1178 0 
L 603 0 
L 603 4863 
z
" transform="scale(0.015625)"/>
        <path id="DejaVuSans-65" d="M 3597 1894 
L 3597 1613 
L 953 1613 
Q 991 1019 1311 708 
Q 1631 397 2203 397 
Q 2534 397 2845 478 
Q 3156 559 3463 722 
L 3463 178 
Q 3153 47 2828 -22 
Q 2503 -91 2169 -91 
Q 1331 -91 842 396 
Q 353 884 353 1716 
Q 353 2575 817 3079 
Q 1281 3584 2069 3584 
Q 2775 3584 3186 3129 
Q 3597 2675 3597 1894 
z
M 3022 2063 
Q 3016 2534 2758 2815 
Q 2500 3097 2075 3097 
Q 1594 3097 1305 2825 
Q 1016 2553 972 2059 
L 3022 2063 
z
" transform="scale(0.015625)"/>
        <path id="DejaVuSans-72" d="M 2631 2963 
Q 2534 3019 2420 3045 
Q 2306 3072 2169 3072 
Q 1681 3072 1420 2755 
Q 1159 2438 1159 1844 
L 1159 0 
L 581 0 
L 581 3500 
L 1159 3500 
L 1159 2956 
Q 1341 3275 1631 3429 
Q 1922 3584 2338 3584 
Q 2397 3584 2469 3576 
Q 2541 3569 2628 3553 
L 2631 2963 
z
" transform="scale(0.015625)"/>
        <path id="DejaVuSans-69" d="M 603 3500 
L 1178 3500 
L 1178 0 
L 603 0 
L 603 3500 
z
M 603 4863 
L 1178 4863 
L 1178 4134 
L 603 4134 
L 603 4863 
z
" transform="scale(0.015625)"/>
        <path id="DejaVuSans-68" d="M 3513 2113 
L 3513 0 
L 2938 0 
L 2938 2094 
Q 2938 2591 2744 2837 
Q 2550 3084 2163 3084 
Q 1697 3084 1428 2787 
Q 1159 2491 1159 1978 
L 1159 0 
L 581 0 
L 581 4863 
L 1159 4863 
L 1159 2956 
Q 1366 3272 1645 3428 
Q 1925 3584 2291 3584 
Q 2894 3584 3203 3211 
Q 3513 2838 3513 2113 
z
" transform="scale(0.015625)"/>
        <path id="DejaVuSans-29" d="M 513 4856 
L 1013 4856 
Q 1481 4119 1714 3412 
Q 1947 2706 1947 2009 
Q 1947 1309 1714 600 
Q 1481 -109 1013 -844 
L 513 -844 
Q 928 -128 1133 580 
Q 1338 1288 1338 2009 
Q 1338 2731 1133 3434 
Q 928 4138 513 4856 
z
" transform="scale(0.015625)"/>
       </defs>
       <use xlink:href="#DejaVuSans-42"/>
       <use xlink:href="#DejaVuSans-45" transform="translate(68.603516 0)"/>
       <use xlink:href="#DejaVuSans-56" transform="translate(131.787109 0)"/>
       <use xlink:href="#DejaVuSans-20" transform="translate(200.195312 0)"/>
       <use xlink:href="#DejaVuSans-28" transform="translate(231.982422 0)"/>
       <use xlink:href="#DejaVuSans-45" transform="translate(270.996094 0)"/>
       <use xlink:href="#DejaVuSans-6c" transform="translate(334.179688 0)"/>
       <use xlink:href="#DejaVuSans-65" transform="translate(361.962891 0)"/>
       <use xlink:href="#DejaVuSans-63" transform="translate(423.486328 0)"/>
       <use xlink:href="#DejaVuSans-74" transform="translate(478.466797 0)"/>
       <use xlink:href="#DejaVuSans-72" transform="translate(517.675781 0)"/>
       <use xlink:href="#DejaVuSans-69" transform="translate(558.789062 0)"/>
       <use xlink:href="#DejaVuSans-63" transform="translate(586.572266 0)"/>
       <use xlink:href="#DejaVuSans-20" transform="translate(641.552734 0)"/>
       <use xlink:href="#DejaVuSans-56" transform="translate(673.339844 0)"/>
       <use xlink:href="#DejaVuSans-65" transform="translate(733.998047 0)"/>
       <use xlink:href="#DejaVuSans-68" transform="translate(795.521484 0)"/>
       <use xlink:href="#DejaVuSans-69" transform="translate(858.900391 0)"/>
       <use xlink:href="#DejaVuSans-63" transform="translate(886.683594 0)"/>
       <use xlink:href="#DejaVuSans-6c" transform="translate(941.664062 0)"/>
       <use xlink:href="#DejaVuSans-65" transform="translate(969.447266 0)"/>
       <use xlink:href="#DejaVuSans-29" transform="translate(1030.970703 0)"/>
      </g>
     </g>
    </g>
    <g id="ytick_2">
     <g id="line2d_7">
      <g>
       <use xlink:href="#mea07aa7242" x="508.479687" y="79.342125" style="stroke: #000000; stroke-width: 0.8"/>
      </g>
     </g>
     <g id="text_8">
      <!-- FCEV (Fuel Cell Electric Vehicle) -->
      <g transform="translate(343.0875 83.141344) scale(0.1 -0.1)">
       <defs>
        <path id="DejaVuSans-46" d="M 628 4666 
L 3309 4666 
L 3309 4134 
L 1259 4134 
L 1259 2759 
L 3109 2759 
L 3109 2228 
L 1259 2228 
L 1259 0 
L 628 0 
L 628 4666 
z
" transform="scale(0.015625)"/>
        <path id="DejaVuSans-43" d="M 4122 4306 
L 4122 3641 
Q 3803 3938 3442 4084 
Q 3081 4231 2675 4231 
Q 1875 4231 1450 3742 
Q 1025 3253 1025 2328 
Q 1025 1406 1450 917 
Q 1875 428 2675 428 
Q 3081 428 3442 575 
Q 3803 722 4122 1019 
L 4122 359 
Q 3791 134 3420 21 
Q 3050 -91 2638 -91 
Q 1578 -91 968 557 
Q 359 1206 359 2328 
Q 359 3453 968 4101 
Q 1578 4750 2638 4750 
Q 3056 4750 3426 4639 
Q 3797 4528 4122 4306 
z
" transform="scale(0.015625)"/>
       </defs>
       <use xlink:href="#DejaVuSans-46"/>
       <use xlink:href="#DejaVuSans-43" transform="translate(57.519531 0)"/>
       <use xlink:href="#DejaVuSans-45" transform="translate(127.34375 0)"/>
       <use xlink:href="#DejaVuSans-56" transform="translate(190.527344 0)"/>
       <use xlink:href="#DejaVuSans-20" transform="translate(258.935547 0)"/>
       <use xlink:href="#DejaVuSans-28" transform="translate(290.722656 0)"/>
       <use xlink:href="#DejaVuSans-46" transform="translate(329.736328 0)"/>
       <use xlink:href="#DejaVuSans-75" transform="translate(381.755859 0)"/>
       <use xlink:href="#DejaVuSans-65" transform="translate(445.134766 0)"/>
       <use xlink:href="#DejaVuSans-6c" transform="translate(506.658203 0)"/>
       <use xlink:href="#DejaVuSans-20" transform="translate(534.441406 0)"/>
       <use xlink:href="#DejaVuSans-43" transform="translate(566.228516 0)"/>
       <use xlink:href="#DejaVuSans-65" transform="translate(636.052734 0)"/>
       <use xlink:href="#DejaVuSans-6c" transform="translate(697.576172 0)"/>
       <use xlink:href="#DejaVuSans-6c" transform="translate(725.359375 0)"/>
       <use xlink:href="#DejaVuSans-20" transform="translate(753.142578 0)"/>
       <use xlink:href="#DejaVuSans-45" transform="translate(784.929688 0)"/>
       <use xlink:href="#DejaVuSans-6c" transform="translate(848.113281 0)"/>
       <use xlink:href="#DejaVuSans-65" transform="translate(875.896484 0)"/>
       <use xlink:href="#DejaVuSans-63" transform="translate(937.419922 0)"/>
       <use xlink:href="#DejaVuSans-74" transform="translate(992.400391 0)"/>
       <use xlink:href="#DejaVuSans-72" transform="translate(1031.609375 0)"/>
       <use xlink:href="#DejaVuSans-69" transform="translate(1072.722656 0)"/>
       <use xlink:href="#DejaVuSans-63" transform="translate(1100.505859 0)"/>
       <use xlink:href="#DejaVuSans-20" transform="translate(1155.486328 0)"/>
       <use xlink:href="#DejaVuSans-56" transform="translate(1187.273438 0)"/>
       <use xlink:href="#DejaVuSans-65" transform="translate(1247.931641 0)"/>
       <use xlink:href="#DejaVuSans-68" transform="translate(1309.455078 0)"/>
       <use xlink:href="#DejaVuSans-69" transform="translate(1372.833984 0)"/>
       <use xlink:href="#DejaVuSans-63" transform="translate(1400.617188 0)"/>
       <use xlink:href="#DejaVuSans-6c" transform="translate(1455.597656 0)"/>
       <use xlink:href="#DejaVuSans-65" transform="translate(1483.380859 0)"/>
       <use xlink:href="#DejaVuSans-29" transform="translate(1544.904297 0)"/>
      </g>
     </g>
    </g>
    <g id="ytick_3">
     <g id="line2d_8">
      <g>
       <use xlink:href="#mea07aa7242" x="508.479687" y="117.358125" style="stroke: #000000; stroke-width: 0.8"/>
      </g>
     </g>
     <g id="text_9">
      <!-- FHEV (Full Hybrid Electric Vehicle) -->
      <g transform="translate(331.592187 121.157344) scale(0.1 -0.1)">
       <defs>
        <path id="DejaVuSans-48" d="M 628 4666 
L 1259 4666 
L 1259 2753 
L 3553 2753 
L 3553 4666 
L 4184 4666 
L 4184 0 
L 3553 0 
L 3553 2222 
L 1259 2222 
L 1259 0 
L 628 0 
L 628 4666 
z
" transform="scale(0.015625)"/>
        <path id="DejaVuSans-79" d="M 2059 -325 
Q 1816 -950 1584 -1140 
Q 1353 -1331 966 -1331 
L 506 -1331 
L 506 -850 
L 844 -850 
Q 1081 -850 1212 -737 
Q 1344 -625 1503 -206 
L 1606 56 
L 191 3500 
L 800 3500 
L 1894 763 
L 2988 3500 
L 3597 3500 
L 2059 -325 
z
" transform="scale(0.015625)"/>
        <path id="DejaVuSans-62" d="M 3116 1747 
Q 3116 2381 2855 2742 
Q 2594 3103 2138 3103 
Q 1681 3103 1420 2742 
Q 1159 2381 1159 1747 
Q 1159 1113 1420 752 
Q 1681 391 2138 391 
Q 2594 391 2855 752 
Q 3116 1113 3116 1747 
z
M 1159 2969 
Q 1341 3281 1617 3432 
Q 1894 3584 2278 3584 
Q 2916 3584 3314 3078 
Q 3713 2572 3713 1747 
Q 3713 922 3314 415 
Q 2916 -91 2278 -91 
Q 1894 -91 1617 61 
Q 1341 213 1159 525 
L 1159 0 
L 581 0 
L 581 4863 
L 1159 4863 
L 1159 2969 
z
" transform="scale(0.015625)"/>
        <path id="DejaVuSans-64" d="M 2906 2969 
L 2906 4863 
L 3481 4863 
L 3481 0 
L 2906 0 
L 2906 525 
Q 2725 213 2448 61 
Q 2172 -91 1784 -91 
Q 1150 -91 751 415 
Q 353 922 353 1747 
Q 353 2572 751 3078 
Q 1150 3584 1784 3584 
Q 2172 3584 2448 3432 
Q 2725 3281 2906 2969 
z
M 947 1747 
Q 947 1113 1208 752 
Q 1469 391 1925 391 
Q 2381 391 2643 752 
Q 2906 1113 2906 1747 
Q 2906 2381 2643 2742 
Q 2381 3103 1925 3103 
Q 1469 3103 1208 2742 
Q 947 2381 947 1747 
z
" transform="scale(0.015625)"/>
       </defs>
       <use xlink:href="#DejaVuSans-46"/>
       <use xlink:href="#DejaVuSans-48" transform="translate(57.519531 0)"/>
       <use xlink:href="#DejaVuSans-45" transform="translate(132.714844 0)"/>
       <use xlink:href="#DejaVuSans-56" transform="translate(195.898438 0)"/>
       <use xlink:href="#DejaVuSans-20" transform="translate(264.306641 0)"/>
       <use xlink:href="#DejaVuSans-28" transform="translate(296.09375 0)"/>
       <use xlink:href="#DejaVuSans-46" transform="translate(335.107422 0)"/>
       <use xlink:href="#DejaVuSans-75" transform="translate(387.126953 0)"/>
       <use xlink:href="#DejaVuSans-6c" transform="translate(450.505859 0)"/>
       <use xlink:href="#DejaVuSans-6c" transform="translate(478.289062 0)"/>
       <use xlink:href="#DejaVuSans-20" transform="translate(506.072266 0)"/>
       <use xlink:href="#DejaVuSans-48" transform="translate(537.859375 0)"/>
       <use xlink:href="#DejaVuSans-79" transform="translate(613.054688 0)"/>
       <use xlink:href="#DejaVuSans-62" transform="translate(672.234375 0)"/>
       <use xlink:href="#DejaVuSans-72" transform="translate(735.710938 0)"/>
       <use xlink:href="#DejaVuSans-69" transform="translate(776.824219 0)"/>
       <use xlink:href="#DejaVuSans-64" transform="translate(804.607422 0)"/>
       <use xlink:href="#DejaVuSans-20" transform="translate(868.083984 0)"/>
       <use xlink:href="#DejaVuSans-45" transform="translate(899.871094 0)"/>
       <use xlink:href="#DejaVuSans-6c" transform="translate(963.054688 0)"/>
       <use xlink:href="#DejaVuSans-65" transform="translate(990.837891 0)"/>
       <use xlink:href="#DejaVuSans-63" transform="translate(1052.361328 0)"/>
       <use xlink:href="#DejaVuSans-74" transform="translate(1107.341797 0)"/>
       <use xlink:href="#DejaVuSans-72" transform="translate(1146.550781 0)"/>
       <use xlink:href="#DejaVuSans-69" transform="translate(1187.664062 0)"/>
       <use xlink:href="#DejaVuSans-63" transform="translate(1215.447266 0)"/>
       <use xlink:href="#DejaVuSans-20" transform="translate(1270.427734 0)"/>
       <use xlink:href="#DejaVuSans-56" transform="translate(1302.214844 0)"/>
       <use xlink:href="#DejaVuSans-65" transform="translate(1362.873047 0)"/>
       <use xlink:href="#DejaVuSans-68" transform="translate(1424.396484 0)"/>
       <use xlink:href="#DejaVuSans-69" transform="translate(1487.775391 0)"/>
       <use xlink:href="#DejaVuSans-63" transform="translate(1515.558594 0)"/>
       <use xlink:href="#DejaVuSans-6c" transform="translate(1570.539062 0)"/>
       <use xlink:href="#DejaVuSans-65" transform="translate(1598.322266 0)"/>
       <use xlink:href="#DejaVuSans-29" transform="translate(1659.845703 0)"/>
      </g>
     </g>
    </g>
    <g id="ytick_4">
     <g id="line2d_9">
      <g>
       <use xlink:href="#mea07aa7242" x="508.479687" y="155.374125" style="stroke: #000000; stroke-width: 0.8"/>
      </g>
     </g>
     <g id="text_10">
      <!-- Internal Combustion engine -->
      <g transform="translate(362.582812 159.173344) scale(0.1 -0.1)">
       <defs>
        <path id="DejaVuSans-49" d="M 628 4666 
L 1259 4666 
L 1259 0 
L 628 0 
L 628 4666 
z
" transform="scale(0.015625)"/>
        <path id="DejaVuSans-61" d="M 2194 1759 
Q 1497 1759 1228 1600 
Q 959 1441 959 1056 
Q 959 750 1161 570 
Q 1363 391 1709 391 
Q 2188 391 2477 730 
Q 2766 1069 2766 1631 
L 2766 1759 
L 2194 1759 
z
M 3341 1997 
L 3341 0 
L 2766 0 
L 2766 531 
Q 2569 213 2275 61 
Q 1981 -91 1556 -91 
Q 1019 -91 701 211 
Q 384 513 384 1019 
Q 384 1609 779 1909 
Q 1175 2209 1959 2209 
L 2766 2209 
L 2766 2266 
Q 2766 2663 2505 2880 
Q 2244 3097 1772 3097 
Q 1472 3097 1187 3025 
Q 903 2953 641 2809 
L 641 3341 
Q 956 3463 1253 3523 
Q 1550 3584 1831 3584 
Q 2591 3584 2966 3190 
Q 3341 2797 3341 1997 
z
" transform="scale(0.015625)"/>
        <path id="DejaVuSans-6d" d="M 3328 2828 
Q 3544 3216 3844 3400 
Q 4144 3584 4550 3584 
Q 5097 3584 5394 3201 
Q 5691 2819 5691 2113 
L 5691 0 
L 5113 0 
L 5113 2094 
Q 5113 2597 4934 2840 
Q 4756 3084 4391 3084 
Q 3944 3084 3684 2787 
Q 3425 2491 3425 1978 
L 3425 0 
L 2847 0 
L 2847 2094 
Q 2847 2600 2669 2842 
Q 2491 3084 2119 3084 
Q 1678 3084 1418 2786 
Q 1159 2488 1159 1978 
L 1159 0 
L 581 0 
L 581 3500 
L 1159 3500 
L 1159 2956 
Q 1356 3278 1631 3431 
Q 1906 3584 2284 3584 
Q 2666 3584 2933 3390 
Q 3200 3197 3328 2828 
z
" transform="scale(0.015625)"/>
        <path id="DejaVuSans-73" d="M 2834 3397 
L 2834 2853 
Q 2591 2978 2328 3040 
Q 2066 3103 1784 3103 
Q 1356 3103 1142 2972 
Q 928 2841 928 2578 
Q 928 2378 1081 2264 
Q 1234 2150 1697 2047 
L 1894 2003 
Q 2506 1872 2764 1633 
Q 3022 1394 3022 966 
Q 3022 478 2636 193 
Q 2250 -91 1575 -91 
Q 1294 -91 989 -36 
Q 684 19 347 128 
L 347 722 
Q 666 556 975 473 
Q 1284 391 1588 391 
Q 1994 391 2212 530 
Q 2431 669 2431 922 
Q 2431 1156 2273 1281 
Q 2116 1406 1581 1522 
L 1381 1569 
Q 847 1681 609 1914 
Q 372 2147 372 2553 
Q 372 3047 722 3315 
Q 1072 3584 1716 3584 
Q 2034 3584 2315 3537 
Q 2597 3491 2834 3397 
z
" transform="scale(0.015625)"/>
        <path id="DejaVuSans-67" d="M 2906 1791 
Q 2906 2416 2648 2759 
Q 2391 3103 1925 3103 
Q 1463 3103 1205 2759 
Q 947 2416 947 1791 
Q 947 1169 1205 825 
Q 1463 481 1925 481 
Q 2391 481 2648 825 
Q 2906 1169 2906 1791 
z
M 3481 434 
Q 3481 -459 3084 -895 
Q 2688 -1331 1869 -1331 
Q 1566 -1331 1297 -1286 
Q 1028 -1241 775 -1147 
L 775 -588 
Q 1028 -725 1275 -790 
Q 1522 -856 1778 -856 
Q 2344 -856 2625 -561 
Q 2906 -266 2906 331 
L 2906 616 
Q 2728 306 2450 153 
Q 2172 0 1784 0 
Q 1141 0 747 490 
Q 353 981 353 1791 
Q 353 2603 747 3093 
Q 1141 3584 1784 3584 
Q 2172 3584 2450 3431 
Q 2728 3278 2906 2969 
L 2906 3500 
L 3481 3500 
L 3481 434 
z
" transform="scale(0.015625)"/>
       </defs>
       <use xlink:href="#DejaVuSans-49"/>
       <use xlink:href="#DejaVuSans-6e" transform="translate(29.492188 0)"/>
       <use xlink:href="#DejaVuSans-74" transform="translate(92.871094 0)"/>
       <use xlink:href="#DejaVuSans-65" transform="translate(132.080078 0)"/>
       <use xlink:href="#DejaVuSans-72" transform="translate(193.603516 0)"/>
       <use xlink:href="#DejaVuSans-6e" transform="translate(232.966797 0)"/>
       <use xlink:href="#DejaVuSans-61" transform="translate(296.345703 0)"/>
       <use xlink:href="#DejaVuSans-6c" transform="translate(357.625 0)"/>
       <use xlink:href="#DejaVuSans-20" transform="translate(385.408203 0)"/>
       <use xlink:href="#DejaVuSans-43" transform="translate(417.195312 0)"/>
       <use xlink:href="#DejaVuSans-6f" transform="translate(487.019531 0)"/>
       <use xlink:href="#DejaVuSans-6d" transform="translate(548.201172 0)"/>
       <use xlink:href="#DejaVuSans-62" transform="translate(645.613281 0)"/>
       <use xlink:href="#DejaVuSans-75" transform="translate(709.089844 0)"/>
       <use xlink:href="#DejaVuSans-73" transform="translate(772.46875 0)"/>
       <use xlink:href="#DejaVuSans-74" transform="translate(824.568359 0)"/>
       <use xlink:href="#DejaVuSans-69" transform="translate(863.777344 0)"/>
       <use xlink:href="#DejaVuSans-6f" transform="translate(891.560547 0)"/>
       <use xlink:href="#DejaVuSans-6e" transform="translate(952.742188 0)"/>
       <use xlink:href="#DejaVuSans-20" transform="translate(1016.121094 0)"/>
       <use xlink:href="#DejaVuSans-65" transform="translate(1047.908203 0)"/>
       <use xlink:href="#DejaVuSans-6e" transform="translate(1109.431641 0)"/>
       <use xlink:href="#DejaVuSans-67" transform="translate(1172.810547 0)"/>
       <use xlink:href="#DejaVuSans-69" transform="translate(1236.287109 0)"/>
       <use xlink:href="#DejaVuSans-6e" transform="translate(1264.070312 0)"/>
       <use xlink:href="#DejaVuSans-65" transform="translate(1327.449219 0)"/>
      </g>
     </g>
    </g>
    <g id="ytick_5">
     <g id="line2d_10">
      <g>
       <use xlink:href="#mea07aa7242" x="508.479687" y="193.390125" style="stroke: #000000; stroke-width: 0.8"/>
      </g>
     </g>
     <g id="text_11">
      <!-- MHEV (Mild Hybrid Electric Vehicle, power-assist hybrid, battery-assisted hybrid vehicles, BAHV) -->
      <g transform="translate(20.878125 197.189344) scale(0.1 -0.1)">
       <defs>
        <path id="DejaVuSans-4d" d="M 628 4666 
L 1569 4666 
L 2759 1491 
L 3956 4666 
L 4897 4666 
L 4897 0 
L 4281 0 
L 4281 4097 
L 3078 897 
L 2444 897 
L 1241 4097 
L 1241 0 
L 628 0 
L 628 4666 
z
" transform="scale(0.015625)"/>
        <path id="DejaVuSans-2c" d="M 750 794 
L 1409 794 
L 1409 256 
L 897 -744 
L 494 -744 
L 750 256 
L 750 794 
z
" transform="scale(0.015625)"/>
        <path id="DejaVuSans-70" d="M 1159 525 
L 1159 -1331 
L 581 -1331 
L 581 3500 
L 1159 3500 
L 1159 2969 
Q 1341 3281 1617 3432 
Q 1894 3584 2278 3584 
Q 2916 3584 3314 3078 
Q 3713 2572 3713 1747 
Q 3713 922 3314 415 
Q 2916 -91 2278 -91 
Q 1894 -91 1617 61 
Q 1341 213 1159 525 
z
M 3116 1747 
Q 3116 2381 2855 2742 
Q 2594 3103 2138 3103 
Q 1681 3103 1420 2742 
Q 1159 2381 1159 1747 
Q 1159 1113 1420 752 
Q 1681 391 2138 391 
Q 2594 391 2855 752 
Q 3116 1113 3116 1747 
z
" transform="scale(0.015625)"/>
        <path id="DejaVuSans-77" d="M 269 3500 
L 844 3500 
L 1563 769 
L 2278 3500 
L 2956 3500 
L 3675 769 
L 4391 3500 
L 4966 3500 
L 4050 0 
L 3372 0 
L 2619 2869 
L 1863 0 
L 1184 0 
L 269 3500 
z
" transform="scale(0.015625)"/>
        <path id="DejaVuSans-2d" d="M 313 2009 
L 1997 2009 
L 1997 1497 
L 313 1497 
L 313 2009 
z
" transform="scale(0.015625)"/>
        <path id="DejaVuSans-76" d="M 191 3500 
L 800 3500 
L 1894 563 
L 2988 3500 
L 3597 3500 
L 2284 0 
L 1503 0 
L 191 3500 
z
" transform="scale(0.015625)"/>
        <path id="DejaVuSans-41" d="M 2188 4044 
L 1331 1722 
L 3047 1722 
L 2188 4044 
z
M 1831 4666 
L 2547 4666 
L 4325 0 
L 3669 0 
L 3244 1197 
L 1141 1197 
L 716 0 
L 50 0 
L 1831 4666 
z
" transform="scale(0.015625)"/>
       </defs>
       <use xlink:href="#DejaVuSans-4d"/>
       <use xlink:href="#DejaVuSans-48" transform="translate(86.279297 0)"/>
       <use xlink:href="#DejaVuSans-45" transform="translate(161.474609 0)"/>
       <use xlink:href="#DejaVuSans-56" transform="translate(224.658203 0)"/>
       <use xlink:href="#DejaVuSans-20" transform="translate(293.066406 0)"/>
       <use xlink:href="#DejaVuSans-28" transform="translate(324.853516 0)"/>
       <use xlink:href="#DejaVuSans-4d" transform="translate(363.867188 0)"/>
       <use xlink:href="#DejaVuSans-69" transform="translate(450.146484 0)"/>
       <use xlink:href="#DejaVuSans-6c" transform="translate(477.929688 0)"/>
       <use xlink:href="#DejaVuSans-64" transform="translate(505.712891 0)"/>
       <use xlink:href="#DejaVuSans-20" transform="translate(569.189453 0)"/>
       <use xlink:href="#DejaVuSans-48" transform="translate(600.976562 0)"/>
       <use xlink:href="#DejaVuSans-79" transform="translate(676.171875 0)"/>
       <use xlink:href="#DejaVuSans-62" transform="translate(735.351562 0)"/>
       <use xlink:href="#DejaVuSans-72" transform="translate(798.828125 0)"/>
       <use xlink:href="#DejaVuSans-69" transform="translate(839.941406 0)"/>
       <use xlink:href="#DejaVuSans-64" transform="translate(867.724609 0)"/>
       <use xlink:href="#DejaVuSans-20" transform="translate(931.201172 0)"/>
       <use xlink:href="#DejaVuSans-45" transform="translate(962.988281 0)"/>
       <use xlink:href="#DejaVuSans-6c" transform="translate(1026.171875 0)"/>
       <use xlink:href="#DejaVuSans-65" transform="translate(1053.955078 0)"/>
       <use xlink:href="#DejaVuSans-63" transform="translate(1115.478516 0)"/>
       <use xlink:href="#DejaVuSans-74" transform="translate(1170.458984 0)"/>
       <use xlink:href="#DejaVuSans-72" transform="translate(1209.667969 0)"/>
       <use xlink:href="#DejaVuSans-69" transform="translate(1250.78125 0)"/>
       <use xlink:href="#DejaVuSans-63" transform="translate(1278.564453 0)"/>
       <use xlink:href="#DejaVuSans-20" transform="translate(1333.544922 0)"/>
       <use xlink:href="#DejaVuSans-56" transform="translate(1365.332031 0)"/>
       <use xlink:href="#DejaVuSans-65" transform="translate(1425.990234 0)"/>
       <use xlink:href="#DejaVuSans-68" transform="translate(1487.513672 0)"/>
       <use xlink:href="#DejaVuSans-69" transform="translate(1550.892578 0)"/>
       <use xlink:href="#DejaVuSans-63" transform="translate(1578.675781 0)"/>
       <use xlink:href="#DejaVuSans-6c" transform="translate(1633.65625 0)"/>
       <use xlink:href="#DejaVuSans-65" transform="translate(1661.439453 0)"/>
       <use xlink:href="#DejaVuSans-2c" transform="translate(1722.962891 0)"/>
       <use xlink:href="#DejaVuSans-20" transform="translate(1754.75 0)"/>
       <use xlink:href="#DejaVuSans-70" transform="translate(1786.537109 0)"/>
       <use xlink:href="#DejaVuSans-6f" transform="translate(1850.013672 0)"/>
       <use xlink:href="#DejaVuSans-77" transform="translate(1911.195312 0)"/>
       <use xlink:href="#DejaVuSans-65" transform="translate(1992.982422 0)"/>
       <use xlink:href="#DejaVuSans-72" transform="translate(2054.505859 0)"/>
       <use xlink:href="#DejaVuSans-2d" transform="translate(2089.244141 0)"/>
       <use xlink:href="#DejaVuSans-61" transform="translate(2125.328125 0)"/>
       <use xlink:href="#DejaVuSans-73" transform="translate(2186.607422 0)"/>
       <use xlink:href="#DejaVuSans-73" transform="translate(2238.707031 0)"/>
       <use xlink:href="#DejaVuSans-69" transform="translate(2290.806641 0)"/>
       <use xlink:href="#DejaVuSans-73" transform="translate(2318.589844 0)"/>
       <use xlink:href="#DejaVuSans-74" transform="translate(2370.689453 0)"/>
       <use xlink:href="#DejaVuSans-20" transform="translate(2409.898438 0)"/>
       <use xlink:href="#DejaVuSans-68" transform="translate(2441.685547 0)"/>
       <use xlink:href="#DejaVuSans-79" transform="translate(2505.064453 0)"/>
       <use xlink:href="#DejaVuSans-62" transform="translate(2564.244141 0)"/>
       <use xlink:href="#DejaVuSans-72" transform="translate(2627.720703 0)"/>
       <use xlink:href="#DejaVuSans-69" transform="translate(2668.833984 0)"/>
       <use xlink:href="#DejaVuSans-64" transform="translate(2696.617188 0)"/>
       <use xlink:href="#DejaVuSans-2c" transform="translate(2760.09375 0)"/>
       <use xlink:href="#DejaVuSans-20" transform="translate(2791.880859 0)"/>
       <use xlink:href="#DejaVuSans-62" transform="translate(2823.667969 0)"/>
       <use xlink:href="#DejaVuSans-61" transform="translate(2887.144531 0)"/>
       <use xlink:href="#DejaVuSans-74" transform="translate(2948.423828 0)"/>
       <use xlink:href="#DejaVuSans-74" transform="translate(2987.632812 0)"/>
       <use xlink:href="#DejaVuSans-65" transform="translate(3026.841797 0)"/>
       <use xlink:href="#DejaVuSans-72" transform="translate(3088.365234 0)"/>
       <use xlink:href="#DejaVuSans-79" transform="translate(3129.478516 0)"/>
       <use xlink:href="#DejaVuSans-2d" transform="translate(3186.908203 0)"/>
       <use xlink:href="#DejaVuSans-61" transform="translate(3222.992188 0)"/>
       <use xlink:href="#DejaVuSans-73" transform="translate(3284.271484 0)"/>
       <use xlink:href="#DejaVuSans-73" transform="translate(3336.371094 0)"/>
       <use xlink:href="#DejaVuSans-69" transform="translate(3388.470703 0)"/>
       <use xlink:href="#DejaVuSans-73" transform="translate(3416.253906 0)"/>
       <use xlink:href="#DejaVuSans-74" transform="translate(3468.353516 0)"/>
       <use xlink:href="#DejaVuSans-65" transform="translate(3507.5625 0)"/>
       <use xlink:href="#DejaVuSans-64" transform="translate(3569.085938 0)"/>
       <use xlink:href="#DejaVuSans-20" transform="translate(3632.5625 0)"/>
       <use xlink:href="#DejaVuSans-68" transform="translate(3664.349609 0)"/>
       <use xlink:href="#DejaVuSans-79" transform="translate(3727.728516 0)"/>
       <use xlink:href="#DejaVuSans-62" transform="translate(3786.908203 0)"/>
       <use xlink:href="#DejaVuSans-72" transform="translate(3850.384766 0)"/>
       <use xlink:href="#DejaVuSans-69" transform="translate(3891.498047 0)"/>
       <use xlink:href="#DejaVuSans-64" transform="translate(3919.28125 0)"/>
       <use xlink:href="#DejaVuSans-20" transform="translate(3982.757812 0)"/>
       <use xlink:href="#DejaVuSans-76" transform="translate(4014.544922 0)"/>
       <use xlink:href="#DejaVuSans-65" transform="translate(4073.724609 0)"/>
       <use xlink:href="#DejaVuSans-68" transform="translate(4135.248047 0)"/>
       <use xlink:href="#DejaVuSans-69" transform="translate(4198.626953 0)"/>
       <use xlink:href="#DejaVuSans-63" transform="translate(4226.410156 0)"/>
       <use xlink:href="#DejaVuSans-6c" transform="translate(4281.390625 0)"/>
       <use xlink:href="#DejaVuSans-65" transform="translate(4309.173828 0)"/>
       <use xlink:href="#DejaVuSans-73" transform="translate(4370.697266 0)"/>
       <use xlink:href="#DejaVuSans-2c" transform="translate(4422.796875 0)"/>
       <use xlink:href="#DejaVuSans-20" transform="translate(4454.583984 0)"/>
       <use xlink:href="#DejaVuSans-42" transform="translate(4486.371094 0)"/>
       <use xlink:href="#DejaVuSans-41" transform="translate(4554.974609 0)"/>
       <use xlink:href="#DejaVuSans-48" transform="translate(4623.382812 0)"/>
       <use xlink:href="#DejaVuSans-56" transform="translate(4698.578125 0)"/>
       <use xlink:href="#DejaVuSans-29" transform="translate(4766.986328 0)"/>
      </g>
     </g>
    </g>
    <g id="ytick_6">
     <g id="line2d_11">
      <g>
       <use xlink:href="#mea07aa7242" x="508.479687" y="231.406125" style="stroke: #000000; stroke-width: 0.8"/>
      </g>
     </g>
     <g id="text_12">
      <!-- PFCEV (Plug-in Fuel Cell Electric Vehicle) -->
      <g transform="translate(299.6625 235.205344) scale(0.1 -0.1)">
       <defs>
        <path id="DejaVuSans-50" d="M 1259 4147 
L 1259 2394 
L 2053 2394 
Q 2494 2394 2734 2622 
Q 2975 2850 2975 3272 
Q 2975 3691 2734 3919 
Q 2494 4147 2053 4147 
L 1259 4147 
z
M 628 4666 
L 2053 4666 
Q 2838 4666 3239 4311 
Q 3641 3956 3641 3272 
Q 3641 2581 3239 2228 
Q 2838 1875 2053 1875 
L 1259 1875 
L 1259 0 
L 628 0 
L 628 4666 
z
" transform="scale(0.015625)"/>
       </defs>
       <use xlink:href="#DejaVuSans-50"/>
       <use xlink:href="#DejaVuSans-46" transform="translate(60.302734 0)"/>
       <use xlink:href="#DejaVuSans-43" transform="translate(117.822266 0)"/>
       <use xlink:href="#DejaVuSans-45" transform="translate(187.646484 0)"/>
       <use xlink:href="#DejaVuSans-56" transform="translate(250.830078 0)"/>
       <use xlink:href="#DejaVuSans-20" transform="translate(319.238281 0)"/>
       <use xlink:href="#DejaVuSans-28" transform="translate(351.025391 0)"/>
       <use xlink:href="#DejaVuSans-50" transform="translate(390.039062 0)"/>
       <use xlink:href="#DejaVuSans-6c" transform="translate(450.341797 0)"/>
       <use xlink:href="#DejaVuSans-75" transform="translate(478.125 0)"/>
       <use xlink:href="#DejaVuSans-67" transform="translate(541.503906 0)"/>
       <use xlink:href="#DejaVuSans-2d" transform="translate(604.980469 0)"/>
       <use xlink:href="#DejaVuSans-69" transform="translate(641.064453 0)"/>
       <use xlink:href="#DejaVuSans-6e" transform="translate(668.847656 0)"/>
       <use xlink:href="#DejaVuSans-20" transform="translate(732.226562 0)"/>
       <use xlink:href="#DejaVuSans-46" transform="translate(764.013672 0)"/>
       <use xlink:href="#DejaVuSans-75" transform="translate(816.033203 0)"/>
       <use xlink:href="#DejaVuSans-65" transform="translate(879.412109 0)"/>
       <use xlink:href="#DejaVuSans-6c" transform="translate(940.935547 0)"/>
       <use xlink:href="#DejaVuSans-20" transform="translate(968.71875 0)"/>
       <use xlink:href="#DejaVuSans-43" transform="translate(1000.505859 0)"/>
       <use xlink:href="#DejaVuSans-65" transform="translate(1070.330078 0)"/>
       <use xlink:href="#DejaVuSans-6c" transform="translate(1131.853516 0)"/>
       <use xlink:href="#DejaVuSans-6c" transform="translate(1159.636719 0)"/>
       <use xlink:href="#DejaVuSans-20" transform="translate(1187.419922 0)"/>
       <use xlink:href="#DejaVuSans-45" transform="translate(1219.207031 0)"/>
       <use xlink:href="#DejaVuSans-6c" transform="translate(1282.390625 0)"/>
       <use xlink:href="#DejaVuSans-65" transform="translate(1310.173828 0)"/>
       <use xlink:href="#DejaVuSans-63" transform="translate(1371.697266 0)"/>
       <use xlink:href="#DejaVuSans-74" transform="translate(1426.677734 0)"/>
       <use xlink:href="#DejaVuSans-72" transform="translate(1465.886719 0)"/>
       <use xlink:href="#DejaVuSans-69" transform="translate(1507 0)"/>
       <use xlink:href="#DejaVuSans-63" transform="translate(1534.783203 0)"/>
       <use xlink:href="#DejaVuSans-20" transform="translate(1589.763672 0)"/>
       <use xlink:href="#DejaVuSans-56" transform="translate(1621.550781 0)"/>
       <use xlink:href="#DejaVuSans-65" transform="translate(1682.208984 0)"/>
       <use xlink:href="#DejaVuSans-68" transform="translate(1743.732422 0)"/>
       <use xlink:href="#DejaVuSans-69" transform="translate(1807.111328 0)"/>
       <use xlink:href="#DejaVuSans-63" transform="translate(1834.894531 0)"/>
       <use xlink:href="#DejaVuSans-6c" transform="translate(1889.875 0)"/>
       <use xlink:href="#DejaVuSans-65" transform="translate(1917.658203 0)"/>
       <use xlink:href="#DejaVuSans-29" transform="translate(1979.181641 0)"/>
      </g>
     </g>
    </g>
    <g id="ytick_7">
     <g id="line2d_12">
      <g>
       <use xlink:href="#mea07aa7242" x="508.479687" y="269.422125" style="stroke: #000000; stroke-width: 0.8"/>
      </g>
     </g>
     <g id="text_13">
      <!-- PHEV (Plug-in Hybrid Electric Vehicle) -->
      <g transform="translate(314.192187 273.221344) scale(0.1 -0.1)">
       <use xlink:href="#DejaVuSans-50"/>
       <use xlink:href="#DejaVuSans-48" transform="translate(60.302734 0)"/>
       <use xlink:href="#DejaVuSans-45" transform="translate(135.498047 0)"/>
       <use xlink:href="#DejaVuSans-56" transform="translate(198.681641 0)"/>
       <use xlink:href="#DejaVuSans-20" transform="translate(267.089844 0)"/>
       <use xlink:href="#DejaVuSans-28" transform="translate(298.876953 0)"/>
       <use xlink:href="#DejaVuSans-50" transform="translate(337.890625 0)"/>
       <use xlink:href="#DejaVuSans-6c" transform="translate(398.193359 0)"/>
       <use xlink:href="#DejaVuSans-75" transform="translate(425.976562 0)"/>
       <use xlink:href="#DejaVuSans-67" transform="translate(489.355469 0)"/>
       <use xlink:href="#DejaVuSans-2d" transform="translate(552.832031 0)"/>
       <use xlink:href="#DejaVuSans-69" transform="translate(588.916016 0)"/>
       <use xlink:href="#DejaVuSans-6e" transform="translate(616.699219 0)"/>
       <use xlink:href="#DejaVuSans-20" transform="translate(680.078125 0)"/>
       <use xlink:href="#DejaVuSans-48" transform="translate(711.865234 0)"/>
       <use xlink:href="#DejaVuSans-79" transform="translate(787.060547 0)"/>
       <use xlink:href="#DejaVuSans-62" transform="translate(846.240234 0)"/>
       <use xlink:href="#DejaVuSans-72" transform="translate(909.716797 0)"/>
       <use xlink:href="#DejaVuSans-69" transform="translate(950.830078 0)"/>
       <use xlink:href="#DejaVuSans-64" transform="translate(978.613281 0)"/>
       <use xlink:href="#DejaVuSans-20" transform="translate(1042.089844 0)"/>
       <use xlink:href="#DejaVuSans-45" transform="translate(1073.876953 0)"/>
       <use xlink:href="#DejaVuSans-6c" transform="translate(1137.060547 0)"/>
       <use xlink:href="#DejaVuSans-65" transform="translate(1164.84375 0)"/>
       <use xlink:href="#DejaVuSans-63" transform="translate(1226.367188 0)"/>
       <use xlink:href="#DejaVuSans-74" transform="translate(1281.347656 0)"/>
       <use xlink:href="#DejaVuSans-72" transform="translate(1320.556641 0)"/>
       <use xlink:href="#DejaVuSans-69" transform="translate(1361.669922 0)"/>
       <use xlink:href="#DejaVuSans-63" transform="translate(1389.453125 0)"/>
       <use xlink:href="#DejaVuSans-20" transform="translate(1444.433594 0)"/>
       <use xlink:href="#DejaVuSans-56" transform="translate(1476.220703 0)"/>
       <use xlink:href="#DejaVuSans-65" transform="translate(1536.878906 0)"/>
       <use xlink:href="#DejaVuSans-68" transform="translate(1598.402344 0)"/>
       <use xlink:href="#DejaVuSans-69" transform="translate(1661.78125 0)"/>
       <use xlink:href="#DejaVuSans-63" transform="translate(1689.564453 0)"/>
       <use xlink:href="#DejaVuSans-6c" transform="translate(1744.544922 0)"/>
       <use xlink:href="#DejaVuSans-65" transform="translate(1772.328125 0)"/>
       <use xlink:href="#DejaVuSans-29" transform="translate(1833.851562 0)"/>
      </g>
     </g>
    </g>
    <g id="text_14">
     <!-- Powertrain Architecture -->
     <g transform="translate(14.798437 214.319437) rotate(-90) scale(0.1 -0.1)">
      <use xlink:href="#DejaVuSans-50"/>
      <use xlink:href="#DejaVuSans-6f" transform="translate(56.677734 0)"/>
      <use xlink:href="#DejaVuSans-77" transform="translate(117.859375 0)"/>
      <use xlink:href="#DejaVuSans-65" transform="translate(199.646484 0)"/>
      <use xlink:href="#DejaVuSans-72" transform="translate(261.169922 0)"/>
      <use xlink:href="#DejaVuSans-74" transform="translate(302.283203 0)"/>
      <use xlink:href="#DejaVuSans-72" transform="translate(341.492188 0)"/>
      <use xlink:href="#DejaVuSans-61" transform="translate(382.605469 0)"/>
      <use xlink:href="#DejaVuSans-69" transform="translate(443.884766 0)"/>
      <use xlink:href="#DejaVuSans-6e" transform="translate(471.667969 0)"/>
      <use xlink:href="#DejaVuSans-20" transform="translate(535.046875 0)"/>
      <use xlink:href="#DejaVuSans-41" transform="translate(566.833984 0)"/>
      <use xlink:href="#DejaVuSans-72" transform="translate(635.242188 0)"/>
      <use xlink:href="#DejaVuSans-63" transform="translate(674.105469 0)"/>
      <use xlink:href="#DejaVuSans-68" transform="translate(729.085938 0)"/>
      <use xlink:href="#DejaVuSans-69" transform="translate(792.464844 0)"/>
      <use xlink:href="#DejaVuSans-74" transform="translate(820.248047 0)"/>
      <use xlink:href="#DejaVuSans-65" transform="translate(859.457031 0)"/>
      <use xlink:href="#DejaVuSans-63" transform="translate(920.980469 0)"/>
      <use xlink:href="#DejaVuSans-74" transform="translate(975.960938 0)"/>
      <use xlink:href="#DejaVuSans-75" transform="translate(1015.169922 0)"/>
      <use xlink:href="#DejaVuSans-72" transform="translate(1078.548828 0)"/>
      <use xlink:href="#DejaVuSans-65" transform="translate(1117.412109 0)"/>
     </g>
    </g>
   </g>
   <g id="patch_10">
    <path d="M 508.479687 288.430125 
L 508.479687 22.318125 
" style="fill: none; stroke: #000000; stroke-width: 0.8; stroke-linejoin: miter; stroke-linecap: square"/>
   </g>
   <g id="patch_11">
    <path d="M 865.599688 288.430125 
L 865.599688 22.318125 
" style="fill: none; stroke: #000000; stroke-width: 0.8; stroke-linejoin: miter; stroke-linecap: square"/>
   </g>
   <g id="patch_12">
    <path d="M 508.479687 288.430125 
L 865.599688 288.430125 
" style="fill: none; stroke: #000000; stroke-width: 0.8; stroke-linejoin: miter; stroke-linecap: square"/>
   </g>
   <g id="patch_13">
    <path d="M 508.479687 22.318125 
L 865.599688 22.318125 
" style="fill: none; stroke: #000000; stroke-width: 0.8; stroke-linejoin: miter; stroke-linecap: square"/>
   </g>
   <g id="text_15">
    <!-- Variety of vehicles -->
    <g transform="translate(631.901563 16.318125) scale(0.12 -0.12)">
     <defs>
      <path id="DejaVuSans-66" d="M 2375 4863 
L 2375 4384 
L 1825 4384 
Q 1516 4384 1395 4259 
Q 1275 4134 1275 3809 
L 1275 3500 
L 2222 3500 
L 2222 3053 
L 1275 3053 
L 1275 0 
L 697 0 
L 697 3053 
L 147 3053 
L 147 3500 
L 697 3500 
L 697 3744 
Q 697 4328 969 4595 
Q 1241 4863 1831 4863 
L 2375 4863 
z
" transform="scale(0.015625)"/>
     </defs>
     <use xlink:href="#DejaVuSans-56"/>
     <use xlink:href="#DejaVuSans-61" transform="translate(60.658203 0)"/>
     <use xlink:href="#DejaVuSans-72" transform="translate(121.9375 0)"/>
     <use xlink:href="#DejaVuSans-69" transform="translate(163.050781 0)"/>
     <use xlink:href="#DejaVuSans-65" transform="translate(190.833984 0)"/>
     <use xlink:href="#DejaVuSans-74" transform="translate(252.357422 0)"/>
     <use xlink:href="#DejaVuSans-79" transform="translate(291.566406 0)"/>
     <use xlink:href="#DejaVuSans-20" transform="translate(350.746094 0)"/>
     <use xlink:href="#DejaVuSans-6f" transform="translate(382.533203 0)"/>
     <use xlink:href="#DejaVuSans-66" transform="translate(443.714844 0)"/>
     <use xlink:href="#DejaVuSans-20" transform="translate(478.919922 0)"/>
     <use xlink:href="#DejaVuSans-76" transform="translate(510.707031 0)"/>
     <use xlink:href="#DejaVuSans-65" transform="translate(569.886719 0)"/>
     <use xlink:href="#DejaVuSans-68" transform="translate(631.410156 0)"/>
     <use xlink:href="#DejaVuSans-69" transform="translate(694.789062 0)"/>
     <use xlink:href="#DejaVuSans-63" transform="translate(722.572266 0)"/>
     <use xlink:href="#DejaVuSans-6c" transform="translate(777.552734 0)"/>
     <use xlink:href="#DejaVuSans-65" transform="translate(805.335938 0)"/>
     <use xlink:href="#DejaVuSans-73" transform="translate(866.859375 0)"/>
    </g>
   </g>
  </g>
 </g>
 <defs>
  <clipPath id="p3a78514267">
   <rect x="508.479687" y="22.318125" width="357.12" height="266.112"/>
  </clipPath>
 </defs>
</svg>
